<svg width="336" height="87" viewBox="0 0 336 87" fill="none" xmlns="http://www.w3.org/2000/svg">
    <path
        d="M316.68 61.2707C326.917 52.8566 328.452 37.7463 320.102 27.5874C311.752 17.4285 296.631 16.009 286.394 24.423C282.344 27.7517 279.54 32.1866 278.285 37.2484L273.158 57.9372C272.555 60.3671 273.14 62.9656 274.72 64.8883C276.3 66.8109 278.736 67.8871 281.237 67.7668L302.527 66.742C307.736 66.4913 312.63 64.5993 316.68 61.2707Z"
        fill="url(#paint0_linear_5_720)" />
    <path
        d="M15.9821 0.00623363C15.1457 -0.000485612 14.3189 0.185504 13.5659 0.549784C12.8129 0.914064 12.1539 1.44684 11.6401 2.10681C11.2845 1.43724 10.7444 0.883563 10.0839 0.511295C9.4233 0.139027 8.6699 -0.0362417 7.91282 0.00623363C7.14 0.0149816 6.38113 0.213201 5.70278 0.583507C5.02444 0.953814 4.44734 1.48489 4.02212 2.13015V1.98233C4.02212 1.48506 3.82454 1.00816 3.47285 0.656536C3.12116 0.304913 2.64417 0.107371 2.1468 0.107371C1.64944 0.107371 1.17244 0.304913 0.820752 0.656536C0.469062 1.00816 0.271484 1.48506 0.271484 1.98233V11.7617C0.271484 12.259 0.469062 12.7359 0.820752 13.0875C1.17244 13.4391 1.64944 13.6367 2.1468 13.6367C2.64417 13.6367 3.12116 13.4391 3.47285 13.0875C3.82454 12.7359 4.02212 12.259 4.02212 11.7617V6.10569C4.02212 4.33187 4.88586 3.41384 6.29429 3.41384C7.70272 3.41384 8.49643 4.33187 8.49643 6.10569V11.7617C8.49643 12.259 8.69401 12.7359 9.0457 13.0875C9.39739 13.4391 9.87438 13.6367 10.3717 13.6367C10.8691 13.6367 11.3461 13.4391 11.6978 13.0875C12.0495 12.7359 12.2471 12.259 12.2471 11.7617V6.10569C12.2471 4.33187 13.1108 3.41384 14.5192 3.41384C15.9277 3.41384 16.7136 4.33187 16.7136 6.10569V11.7617C16.7136 12.259 16.9112 12.7359 17.2629 13.0875C17.6145 13.4391 18.0915 13.6367 18.5889 13.6367C19.0863 13.6367 19.5633 13.4391 19.915 13.0875C20.2666 12.7359 20.4642 12.259 20.4642 11.7617V4.86869C20.4876 1.6867 18.7757 0.00623363 15.9821 0.00623363Z"
        fill="#EEEEFF" />
    <path
        d="M32.8182 0.101969C32.4023 0.110966 32.0007 0.255735 31.6748 0.514194C31.3488 0.772654 31.1164 1.13061 31.0129 1.53348L28.2661 9.21226L25.4025 1.51014C25.3082 1.10432 25.0775 0.743123 24.7489 0.486846C24.4204 0.230569 24.0139 0.0947174 23.5972 0.101969C23.3554 0.0924368 23.1142 0.132251 22.8883 0.218981C22.6623 0.30571 22.4565 0.437539 22.2832 0.606428C22.1099 0.775317 21.9728 0.977728 21.8803 1.20132C21.7878 1.4249 21.7419 1.66498 21.7452 1.90691C21.7652 2.20387 21.8335 2.49557 21.9476 2.77048L26.4608 13.2345L26.3363 13.5301C26.2389 13.7938 26.053 14.0155 25.8103 14.1574C25.5676 14.2993 25.2832 14.3525 25.0056 14.3081C24.7402 14.2994 24.4777 14.2495 24.2275 14.1603C24.0281 14.0883 23.817 14.054 23.605 14.0592C23.4048 14.0611 23.207 14.1032 23.0233 14.1831C22.8397 14.2629 22.674 14.3789 22.5361 14.524C22.3982 14.6692 22.2908 14.8406 22.2205 15.028C22.1501 15.2154 22.1182 15.4151 22.1265 15.6151C22.1283 15.9676 22.2447 16.31 22.458 16.5906C22.6713 16.8713 22.9701 17.075 23.3093 17.1711C23.965 17.4085 24.6585 17.5245 25.3558 17.5134C27.6046 17.5134 28.7174 16.5021 29.8301 13.8102L34.4445 2.72381C34.5507 2.4398 34.6086 2.14002 34.6157 1.8369C34.6158 1.60373 34.569 1.37292 34.4779 1.15827C34.3868 0.943618 34.2534 0.74952 34.0856 0.587576C33.9178 0.425633 33.7191 0.299166 33.5014 0.215731C33.2836 0.132296 33.0512 0.0936044 32.8182 0.101969Z"
        fill="white" />
    <path
        d="M133.68 20.8238C133.054 20.8228 132.435 20.9452 131.856 21.1841C131.278 21.423 130.753 21.7737 130.31 22.2161C129.868 22.6584 129.517 23.1837 129.278 23.7618C129.039 24.3399 128.917 24.9596 128.918 25.5851V48.2013L110.305 23.7724C108.99 22.0764 107.644 20.9716 105.309 20.9716H104.305C103.67 20.9664 103.041 21.0877 102.453 21.3282C101.865 21.5688 101.331 21.9239 100.882 22.3728C100.433 22.8218 100.078 23.3556 99.8375 23.9432C99.5969 24.5307 99.4757 25.1603 99.4809 25.7952V60.6492C99.4809 61.912 99.9826 63.1231 100.876 64.016C101.769 64.9089 102.98 65.4105 104.243 65.4105C105.506 65.4105 106.717 64.9089 107.61 64.016C108.504 63.1231 109.005 61.912 109.005 60.6492V37.1694L128.303 62.4775C129.603 64.1735 130.988 65.3172 133.322 65.3172H133.633C134.268 65.3224 134.898 65.2011 135.486 64.9606C136.073 64.72 136.607 64.3649 137.056 63.9159C137.505 63.467 137.861 62.9332 138.101 62.3456C138.342 61.7581 138.463 61.1285 138.458 60.4936V25.5851C138.459 24.9582 138.336 24.3374 138.096 23.7582C137.856 23.1791 137.504 22.6531 137.06 22.2105C136.616 21.768 136.089 21.4176 135.509 21.1796C134.928 20.9416 134.307 20.8207 133.68 20.8238Z"
        fill="white" />
    <path
        d="M93.0119 26.6871C93.0119 23.4731 90.406 20.8677 87.1914 20.8677C83.9769 20.8677 81.3709 23.4731 81.3709 26.6871V59.5961C81.3709 62.8101 83.9769 65.4155 87.1914 65.4155C90.406 65.4155 93.0119 62.8101 93.0119 59.5961V26.6871Z"
        fill="white" />
    <path
        d="M220.144 56.4624H200.278V47.2587H217.008C217.573 47.2638 218.132 47.1575 218.656 46.9458C219.179 46.7342 219.655 46.4213 220.057 46.0252C220.459 45.6291 220.779 45.1576 220.998 44.6376C221.217 44.1177 221.332 43.5596 221.335 42.9953C221.333 41.8487 220.876 40.7497 220.065 39.9389C219.254 39.1281 218.155 38.6717 217.008 38.6697H200.278V29.7772H219.825C220.39 29.7823 220.949 29.676 221.472 29.4644C221.996 29.2527 222.472 28.9398 222.874 28.5437C223.276 28.1476 223.596 27.6761 223.815 27.1561C224.034 26.6362 224.149 26.0781 224.152 25.5138C224.147 24.3686 223.69 23.2715 222.879 22.4624C222.069 21.6533 220.971 21.198 219.825 21.196H195.516C194.881 21.1908 194.251 21.312 193.664 21.5526C193.076 21.7931 192.542 22.1482 192.093 22.5972C191.644 23.0461 191.289 23.5799 191.048 24.1675C190.808 24.7551 190.686 25.3846 190.692 26.0195V60.2512C190.686 60.8861 190.808 61.5156 191.048 62.1032C191.289 62.6908 191.644 63.2246 192.093 63.6735C192.542 64.1224 193.076 64.4776 193.664 64.7181C194.251 64.9587 194.881 65.0799 195.516 65.0747H220.144C220.708 65.0809 221.267 64.9755 221.79 64.7646C222.312 64.5537 222.788 64.2414 223.19 63.8458C223.591 63.4503 223.91 62.9792 224.129 62.4597C224.347 61.9402 224.461 61.3827 224.463 60.8191C224.466 60.2494 224.357 59.6847 224.141 59.1572C223.926 58.6298 223.608 58.15 223.207 57.7453C222.806 57.3407 222.329 57.0191 221.803 56.7989C221.278 56.5788 220.714 56.4644 220.144 56.4624Z"
        fill="white" />
    <path
        d="M162.045 21.196H149.766C149.131 21.1908 148.501 21.312 147.913 21.5526C147.326 21.7931 146.792 22.1482 146.343 22.5972C145.894 23.0461 145.539 23.5799 145.298 24.1675C145.057 24.7551 144.936 25.3846 144.941 26.0195V60.2512C144.936 60.8861 145.057 61.5156 145.298 62.1032C145.539 62.6908 145.894 63.2246 146.343 63.6735C146.792 64.1224 147.326 64.4775 147.913 64.7181C148.501 64.9587 149.131 65.0799 149.766 65.0747H162.045C175.834 65.0747 185.389 55.4899 185.389 43.1509V43.0264C185.358 30.6563 175.834 21.196 162.045 21.196ZM175.273 43.2443C175.273 51.0242 169.951 56.3379 162.045 56.3379H154.59V29.8861H162.045C169.943 29.8861 175.273 35.3321 175.273 43.112V43.2443Z"
        fill="white" />
    <path
        d="M266.38 35.7911V35.6666C266.38 31.5277 265.065 28.089 262.622 25.6461C259.735 22.7597 255.416 21.196 249.837 21.196H234.609C233.974 21.1908 233.344 21.312 232.756 21.5526C232.169 21.7931 231.635 22.1482 231.186 22.5972C230.737 23.0461 230.381 23.5799 230.141 24.1675C229.9 24.7551 229.779 25.3846 229.784 26.0195V60.6013C229.784 61.8806 230.292 63.1075 231.197 64.012C232.102 64.9166 233.329 65.4248 234.609 65.4248C235.888 65.4248 237.115 64.9166 238.02 64.012C238.925 63.1075 239.433 61.8806 239.433 60.6013V51.0164H247.144L256.544 62.9197C257.075 63.6925 257.786 64.3244 258.616 64.7609C259.445 65.1973 260.369 65.4252 261.307 65.4248C261.9 65.4362 262.49 65.3297 263.042 65.1116C263.594 64.8936 264.098 64.5682 264.523 64.1543C264.949 63.7405 265.288 63.2464 265.521 62.7006C265.754 62.1548 265.877 61.5682 265.882 60.9747C265.835 59.5936 265.281 58.2781 264.326 57.2793L257.61 49.1337C262.933 46.9397 266.38 42.6841 266.38 35.7911ZM256.607 36.289C256.607 39.9923 253.914 42.513 249.214 42.513H239.433V29.9017H249.028C253.696 29.9017 256.607 32.0334 256.607 36.1645V36.289Z"
        fill="white" />
    <path
        d="M65.9435 12.6675C68.0211 12.6654 70.0778 13.0819 71.991 13.8919C73.9041 14.7019 75.6344 15.8889 77.0787 17.3821C77.6431 18.0471 78.3384 18.5889 79.1212 18.9737C79.9041 19.3586 80.7578 19.5782 81.6292 19.6189C82.5006 19.6597 83.371 19.5207 84.1864 19.2106C85.0018 18.9005 85.7446 18.426 86.3686 17.8165C86.9926 17.207 87.4845 16.4757 87.8137 15.668C88.1428 14.8603 88.3022 13.9935 88.2819 13.1215C88.2615 12.2496 88.0619 11.3911 87.6955 10.5996C87.329 9.80812 86.8036 9.10049 86.1518 8.52076C82.233 4.5034 77.2057 1.74474 71.7117 0.596925C66.2177 -0.550885 60.5062 -0.0357685 55.3063 2.07652C50.1064 4.1888 45.6541 7.80243 42.5176 12.4561C39.3811 17.1098 37.7029 22.5924 37.697 28.204C37.697 54.2589 65.9435 86.2733 65.9435 86.2733C68.3173 83.5947 69.7004 80.1832 69.8619 76.608C70.0233 73.0329 68.9534 69.5106 66.8306 66.629L65.9513 65.4076C64.7841 63.7038 63.6169 61.8755 62.3796 59.9616C59.0341 54.7172 56.1693 49.1813 53.8201 43.4215C51.5324 37.6177 50.3729 32.5296 50.3729 28.2195C50.3739 26.1762 50.7775 24.153 51.5606 22.2656C52.3436 20.3782 53.4908 18.6635 54.9367 17.2193C56.3825 15.7752 58.0987 14.6299 59.9873 13.8489C61.8759 13.0679 63.8998 12.6664 65.9435 12.6675Z"
        fill="white" />
    <path
        d="M75.4352 38.2472C75.4352 38.2472 75.0539 31.9065 66.8757 33.2525C61.8361 34.262 57.0992 36.4257 53.0366 39.5735C48.9741 42.7214 45.6966 46.7679 43.4614 51.3952C46.2075 57.4827 49.4258 63.3459 53.087 68.9312C52.9351 67.9009 52.8596 66.8607 52.8614 65.8192C52.8764 61.0566 54.5439 56.4468 57.5793 52.7763C60.6147 49.1058 64.83 46.6022 69.5058 45.6926C76.5091 44.4244 75.4352 38.2472 75.4352 38.2472Z"
        fill="url(#paint1_linear_5_720)" />
    <path
        d="M308.09 52.9208V38.2788C308.09 37.1504 308.982 36.2583 310.11 36.2583C311.238 36.2583 312.131 37.1504 312.131 38.2788V52.9208C312.131 54.0491 311.238 54.9413 310.11 54.9413C308.982 54.9413 308.09 54.0491 308.09 52.9208Z"
        fill="white" />
    <path
        d="M286.557 53.0518C286.557 52.7632 286.662 52.4746 286.793 52.1859L293.196 37.7276C293.642 36.7305 294.455 36.127 295.557 36.127H295.793C296.895 36.127 297.683 36.7305 298.129 37.7276L304.531 52.1859C304.663 52.4746 304.741 52.737 304.741 52.9994C304.741 54.0752 303.902 54.9411 302.826 54.9411C301.881 54.9411 301.251 54.3901 300.884 53.5504L299.651 50.664H291.569L290.283 53.6816C289.942 54.4688 289.26 54.9411 288.42 54.9411C287.37 54.9411 286.557 54.1014 286.557 53.0518ZM293.064 47.0953H298.155L295.61 41.0339L293.064 47.0953Z"
        fill="white" />
    <circle cx="280.384" cy="60.6872" r="3.78002" fill="url(#paint2_linear_5_720)" stroke="white" />
    <defs>
        <linearGradient id="paint0_linear_5_720" x1="320.102" y1="27.5874" x2="274.72" y2="64.8883"
            gradientUnits="userSpaceOnUse">
            <stop stop-color="#F800C0" />
            <stop offset="1" stop-color="#FE8A70" />
        </linearGradient>
        <linearGradient id="paint1_linear_5_720" x1="43.4614" y1="50.9985" x2="75.4897" y2="50.9985"
            gradientUnits="userSpaceOnUse">
            <stop stop-color="#FE8A70" />
            <stop offset="1" stop-color="#F800C0" />
        </linearGradient>
        <linearGradient id="paint2_linear_5_720" x1="277.104" y1="60.6872" x2="283.664" y2="60.6872"
            gradientUnits="userSpaceOnUse">
            <stop stop-color="#7670FF" />
            <stop offset="1" stop-color="#5B42FF" />
        </linearGradient>
    </defs>
</svg>